# xmcd
#
# Track frame offsets:
#	150
#	22468
#	35446
#	52594
#	70678
#	87627
#	105256
#	118236
#	134100
#	143819
#	161016
#	180000
#
# Disc length: 2662 seconds
# Revision: 0
# Processed by: cddbd v1.5.2PL0 Copyright (c) Steve Scherf et al.
# Submitted via: dBpowerAMP V12.0
#
DISCID=a20a640c
DTITLE=Louis "Cowboy" Johnson - Louis "Cowboy" Johnson
DYEAR=2010
DGENRE=Folk
TTITLE0=Someday
TTITLE1=Old Friend
TTITLE2=Life on the Bayou
TTITLE3=Outskirts of Hell
TTITLE4=Rosary
TTITLE5=I'll Fall Apart
TTITLE6=Is She Your Memory or Mine
TTITLE7=1953
TTITLE8=Some Morning
TTITLE9=I Ain't Sayin' Sorry Anymore
TTITLE10=Standing at the Crossroads
TTITLE11=Bonus Track (Untitled)
EXTD=
EXTT0=
EXTT1=
EXTT2=
EXTT3=
EXTT4=
EXTT5=
EXTT6=
EXTT7=
EXTT8=
EXTT9=
EXTT10=
EXTT11=
PLAYORDER=
